<svg xmlns="http://www.w3.org/2000/svg" height="800" width="1200" viewBox="-30.22485 -42.6165 261.9487 255.699"><path d="M115.293.61c-13.85 0-26.365 5.679-35.355 14.839a47.554 47.554 0 00-1.801 1.936c-6.778 7.679-11.216 17.483-12.183 28.284.076.876.112 1.757.112 2.659 0 1.4-.09 2.768-.258 4.117-.415 3.313-1.321 6.427-2.637 9.229-3.706 7.901-10.603 13.221-18.501 13.221H27.519V21.762h17.15c8.319 0 16.197 7.227 19.73 15.843 2.197-8.184 6.558-16.25 12.041-22.371C67.724 6.58 54.78.556 41.516.556H2.86v96.507h38.655c12.634 0 24.138-4.856 32.736-12.803a48.624 48.624 0 002.723-2.727 47.994 47.994 0 0012.329-26.018 26.7 26.7 0 01.212-11.685 26.635 26.635 0 011.819-5.105c4.272-8.935 13.384-15.107 23.958-15.107 11.166 0 20.727 6.92 24.638 16.692 1.243-9.072 5.271-17.381 11.286-24.258C142.195 6.539 129.428.61 115.293.61m0 76.048c-10.913 0-20.275-6.573-24.352-15.975a50.967 50.967 0 01-12.232 22.86c9.055 9.907 22.097 16.125 36.585 16.125 8.798 0 17.075-2.3 24.238-6.336V60.908c-4.121 9.273-13.426 15.75-24.239 15.75M201.5 21.135V0h-9.124v.036c-14.539.435-27.602 6.178-36.797 15.106a53.156 53.156 0 00-2.652 2.8c-6.909 7.854-11.022 17.727-11.022 28.452 0 .496.015 1.469.015 1.469v49.573h24.001v-.075h.317V71.155h35.19v-20.87h-35.76a31.98 31.98 0 012.082-9.953c4.296-11.165 14.657-19.076 26.793-19.228v.031h6.957" fill="#0f2144"/><path d="M28.178 157.246c0-4.873-2.521-6.946-11.148-7.786-7.843-.729-15.349-2.465-15.405-11.315-.057-8.796 7.002-12.717 15.237-12.717 11.148 0 15.853 4.873 16.805 11.933l-5.713.615c-.785-5.266-4.09-7.451-11.092-7.451-3.53.056-9.635 1.289-9.58 7.564 0 3.808 1.85 5.489 9.916 6.386 10.475 1.009 16.47 2.913 16.525 12.715 0 9.299-8.234 13.276-16.693 13.276-11.484 0-16.022-4.928-17.03-12.211l5.714-.56c.896 5.434 4.313 7.674 11.316 7.674 5.154-.057 11.148-2.073 11.148-8.123m33.056 8.348c-1.961 2.912-5.49 4.872-9.58 4.872-6.553 0-11.427-3.527-11.427-10.026v-20.335h5.378v19.382c0 3.922 2.745 5.994 6.834 5.994 4.873 0 8.235-3.921 8.626-7.002v-18.374h5.323v22.351l.392 7.339h-4.874l-.672-4.201m17.874-7.115c.448 3.25 3.753 7.002 8.907 7.002 5.098 0 8.347-3.64 8.347-10.53 0-6.836-3.25-10.532-8.347-10.532-5.154 0-8.459 3.809-8.907 7.002zm22.8-3.529c0 9.916-4.761 15.516-13.389 15.516-4.09 0-7.73-1.904-9.579-4.928l-.672 4.257h-4.874l.393-7.395v-37.42h5.321v19.102c1.905-2.857 5.434-4.649 9.411-4.649 8.627 0 13.39 5.6 13.39 15.517m25.436 6.106c0-3.641-2.857-3.641-7.955-4.201-5.098-.561-11.932-1.176-11.932-8.011 0-6.89 6.555-9.41 11.988-9.41 8.123 0 11.876 3.304 12.66 8.85l-5.601.671c-.618-3.136-2.521-4.872-7.059-4.816-2.913.055-6.497.727-6.497 4.314 0 3.025 2.856 3.303 7.339 3.752 5.712.561 12.602.951 12.602 8.571 0 7.059-6.946 9.69-13.387 9.69-8.459 0-12.27-3.696-12.941-8.906l5.602-.728c.616 3.138 2.577 4.985 7.282 4.93 3.923-.112 7.899-1.064 7.899-4.706m15.745-8.458h16.023c-.113-5.49-2.578-8.572-7.507-8.516-4.818 0-8.122 2.633-8.516 8.516zm-.056 4.536c.394 6.051 3.697 8.627 8.629 8.627 4.816.113 6.776-1.79 7.393-4.705l5.601.673c-.67 4.704-4.37 8.737-12.938 8.737-8.854 0-14.286-5.209-14.286-15.516s5.432-15.516 14.117-15.516c9.019 0 13.332 5.6 13.332 15.46v2.24h-21.848m38.152 8.627c5.434.113 9.58-3.807 10.196-7.114v-3.473l-9.132 1.457c-3.865.615-6.44 1.568-6.44 4.873 0 2.912 1.847 4.257 5.376 4.257zm-4.201-16.637l-5.545-.784c.84-5.153 3.809-8.906 12.38-8.906 8.066 0 12.884 3.527 12.884 10.866v12.1l.392 7.395h-4.873l-.673-4.257c-2.073 3.192-6.33 4.928-10.699 4.928-7.395 0-10.644-3.47-10.644-8.794 0-6.218 4.65-8.234 11.54-9.243l9.635-1.402v-1.118c0-4.146-2.632-5.715-7.45-5.826-4.707-.057-6.33 1.791-6.947 5.041" fill="#5a5a5f"/></svg>